<svg width="33" height="33" viewBox="0 0 33 33" fill="none" xmlns="http://www.w3.org/2000/svg">
<path fill-rule="evenodd" clip-rule="evenodd" d="M14.4375 5.15625C9.31161 5.15625 5.15625 9.31161 5.15625 14.4375C5.15625 19.5634 9.31161 23.7188 14.4375 23.7188C17.0007 23.7188 19.3196 22.681 21.0003 21.0003C22.681 19.3196 23.7188 17.0007 23.7188 14.4375C23.7188 9.31161 19.5634 5.15625 14.4375 5.15625ZM3.09375 14.4375C3.09375 8.17252 8.17252 3.09375 14.4375 3.09375C20.7025 3.09375 25.7812 8.17252 25.7812 14.4375C25.7812 17.1983 24.794 19.73 23.1549 21.6965L29.6042 28.1458C30.0069 28.5485 30.0069 29.2015 29.6042 29.6042C29.2015 30.0069 28.5485 30.0069 28.1458 29.6042L21.6965 23.1549C19.73 24.794 17.1983 25.7812 14.4375 25.7812C8.17252 25.7812 3.09375 20.7025 3.09375 14.4375Z" fill="white"/>
</svg>
